<svg version="1.2" xmlns="http://www.w3.org/2000/svg" viewBox="0 0 50 50" width="50" height="50"><path fill="#fff" fill-rule="evenodd" class="a" d="m39.4 4.6c5.5 3.9 9.3 9.9 10.3 16.6 1.1 6.7-0.7 13.6-4.8 18.9-4.2 5.4-10.3 8.9-17.1 9.6-6.8 0.8-13.5-1.3-18.7-5.7-2.9-2.4-5.3-5.4-6.9-8.9-1.5-3.4-2.3-7.2-2.2-10.9 0.1-3.8 1.1-7.5 2.8-10.9 1.8-3.3 4.2-6.2 7.3-8.5 2.1-1.5 4.4-2.7 6.9-3.5 2.5-0.9 5.1-1.3 7.7-1.3 2.6-0.1 5.2 0.3 7.7 1.1 2.5 0.8 4.8 1.9 7 3.5zm-26 4.8q0.6 0.1 1.2 0.3 0.6 0.1 1.2 0.3 0.6 0.1 1.2 0.3 0.6 0.2 1.1 0.4c8.4 3.1 13.6 8.9 11.4 13.2q-0.2 0.3-0.4 0.6-0.2 0.3-0.4 0.6-0.3 0.2-0.6 0.5-0.3 0.2-0.6 0.4c-1.9-4.7-4.5-9.4-5.2-13.1-0.1 4.6 0.8 9.6 1.3 14.6q-1.7 0.2-3.4 0.2-1.6 0-3.3-0.1-1.7-0.2-3.3-0.6-1.6-0.4-3.2-1-0.5-0.2-1.1-0.5-0.5-0.2-1.1-0.4-0.5-0.3-1.1-0.6-0.5-0.2-1-0.5 0.9 1 1.9 1.8 1 0.9 2.2 1.6 1.1 0.7 2.3 1.3 1.2 0.6 2.5 1 1.1 0.4 2.2 0.7 1.1 0.3 2.2 0.5 1.1 0.2 2.2 0.3 1.2 0.1 2.3 0.1c0.2 5.1-0.3 9.8-3.2 13.5 9.4-2.5 10.2-8 8.5-14.2 3-0.8 5.3-2.4 6.4-4.6 2.6-5.2-2.3-12-11-15.2q-1.4-0.5-2.7-0.8-1.4-0.3-2.8-0.5-1.4-0.2-2.8-0.2-1.4-0.1-2.8 0.1z"/></svg>