<svg version="1.2" xmlns="http://www.w3.org/2000/svg" viewBox="0 0 259 50" width="259" height="50"><path fill-rule="evenodd" fill="#ed143d" d="m69.5 31.2h-3.3q-0.1 0-0.2 0.1-0.1 0-0.2 0 0 0-0.1 0.1-0.1 0-0.2 0.1 0 0.1-0.1 0.1-0.1 0.1-0.1 0.2-0.1 0.1-0.1 0.2 0 0.1 0 0.1l-0.8 5.7q0 0.1 0 0.2 0 0.1-0.1 0.2 0 0-0.1 0.1 0 0.1-0.1 0.2-0.1 0-0.1 0.1-0.1 0-0.2 0-0.1 0.1-0.2 0.1-0.1 0-0.2 0h-5.7q-0.1 0-0.2 0 0 0-0.1 0-0.1-0.1-0.2-0.1 0-0.1-0.1-0.1 0-0.1-0.1-0.2 0-0.1-0.1-0.2 0 0 0-0.1 0-0.1 0-0.2l3.4-26q0-0.1 0-0.2 0.1-0.1 0.1-0.2 0.1 0 0.1-0.1 0.1-0.1 0.1-0.1 0.1-0.1 0.2-0.2 0.1 0 0.2 0 0.1-0.1 0.1-0.1 0.1 0 0.2 0h11.7q0.5 0 1 0 0.5 0.1 1 0.2 0.5 0.1 1 0.2 0.4 0.2 0.9 0.4 0.4 0.2 0.8 0.4 0.4 0.2 0.8 0.5 0.4 0.3 0.7 0.6 0.4 0.3 0.7 0.7 0.3 0.3 0.6 0.7 0.2 0.4 0.5 0.8 0.2 0.4 0.4 0.9 0.1 0.4 0.3 0.9 0.1 0.4 0.2 0.9 0.1 0.5 0.1 1 0.1 0.5 0.1 1.1 0 0.5-0.1 1-0.1 0.5-0.2 1-0.1 0.5-0.3 1-0.1 0.5-0.3 1-0.2 0.5-0.4 1-0.2 0.4-0.5 0.8-0.3 0.5-0.6 0.9-0.3 0.4-0.7 0.7-0.3 0.4-0.7 0.7-0.4 0.4-0.9 0.7-0.4 0.3-0.9 0.6-0.5 0.3-0.9 0.5-0.5 0.2-1 0.4-0.7 0.2-1.3 0.3-0.6 0.2-1.2 0.3-0.6 0.1-1.3 0.1-0.6 0.1-1.2 0.1zm2-13.4h-3.6q-0.1 0-0.2 0-0.1 0.1-0.2 0.1 0 0-0.1 0.1-0.1 0-0.2 0.1 0 0.1-0.1 0.1-0.1 0.1-0.1 0.2 0 0.1-0.1 0.2 0 0 0 0.1l-0.6 4.5q0 0.1 0 0.2 0 0 0 0.1 0 0.1 0.1 0.2 0 0.1 0.1 0.1 0 0.1 0.1 0.1 0.1 0.1 0.2 0.1 0.1 0.1 0.1 0.1 0.1 0 0.2 0h4.1q0.3 0 0.6 0 0.3-0.1 0.6-0.2 0.3-0.1 0.6-0.3 0.2-0.2 0.4-0.4 0.2-0.2 0.4-0.5 0.1-0.2 0.2-0.5 0.2-0.3 0.2-0.6 0.1-0.2 0.2-0.5 0-0.2 0-0.3 0-0.2 0-0.3 0-0.2 0-0.3 0-0.2 0-0.3-0.1-0.1-0.1-0.3-0.1-0.1-0.1-0.2-0.1-0.2-0.2-0.3 0-0.1-0.1-0.2-0.1-0.1-0.2-0.2-0.1-0.1-0.3-0.2-0.1-0.1-0.2-0.2-0.1-0.1-0.3-0.2-0.1 0-0.3-0.1-0.2 0-0.3-0.1-0.2 0-0.4 0-0.2 0-0.3 0zm12 20.8q-0.1 0-0.2 0-0.1-0.1-0.2-0.1-0.1 0-0.1-0.1-0.1 0-0.1-0.1-0.1-0.1-0.2-0.1 0-0.1 0-0.2 0-0.1 0-0.2 0-0.1 0-0.1l3.3-26q0.1-0.2 0.2-0.4 0-0.1 0.2-0.3 0.1-0.1 0.3-0.2 0.2 0 0.3-0.1h11.9q0.5 0 1 0.1 0.6 0 1.1 0.1 0.5 0.1 1 0.3 0.4 0.1 0.9 0.3 0.4 0.2 0.8 0.4 0.4 0.2 0.8 0.5 0.4 0.2 0.7 0.5 0.3 0.3 0.6 0.7 0.3 0.3 0.6 0.7 0.2 0.3 0.4 0.7 0.2 0.4 0.4 0.9 0.2 0.4 0.3 0.8 0.1 0.5 0.2 1 0 0.5 0.1 1 0 0.5 0 1 0 0.5-0.1 1-0.1 0.3-0.1 0.6-0.1 0.3-0.1 0.6-0.1 0.3-0.2 0.6-0.1 0.3-0.2 0.6-0.1 0.3-0.3 0.6-0.1 0.3-0.2 0.6-0.2 0.3-0.3 0.6-0.2 0.3-0.4 0.5-0.1 0.3-0.3 0.5-0.2 0.3-0.4 0.5-0.2 0.3-0.4 0.5-0.2 0.2-0.4 0.5-0.2 0.2-0.4 0.4-0.2 0.2-0.4 0.3-0.3 0.2-0.5 0.4-0.3 0.1-0.5 0.3-0.1 0-0.1 0.1-0.1 0-0.2 0.1 0 0.1-0.1 0.2 0 0-0.1 0.1 0 0.1 0 0.2-0.1 0.1-0.1 0.1 0 0.1 0.1 0.2 0 0.1 0 0.2 1.2 1.8 2.6 3.9 1.3 2 2.3 3.7 0.1 0 0.1 0.1 0 0.1 0 0.2 0 0.1 0 0.2 0 0-0.1 0.1 0 0.1-0.1 0.2 0 0-0.1 0.1-0.1 0-0.1 0.1-0.1 0-0.2 0h-7q-0.1 0-0.2 0-0.1-0.1-0.2-0.1-0.1 0-0.2 0-0.1-0.1-0.2-0.1-0.1-0.1-0.2-0.1-0.1-0.1-0.1-0.1-0.1-0.1-0.2-0.2-0.1-0.1-0.1-0.2-1-1.5-2-3.2c-0.7-1.1-1.3-2.2-1.9-3.3q-0.1-0.1-0.2-0.1 0-0.1-0.1-0.2-0.1 0-0.2-0.1 0 0-0.1-0.1-0.1 0-0.2-0.1-0.1 0-0.2 0-0.1-0.1-0.2-0.1-0.1 0-0.2 0h-0.8q-0.1 0-0.2 0-0.1 0-0.2 0.1-0.1 0-0.2 0.1 0 0-0.1 0.1-0.1 0-0.1 0.1-0.1 0.1-0.1 0.2-0.1 0-0.1 0.1 0 0.1 0 0.2l-0.8 6.2q-0.1 0.1-0.1 0.1 0 0.1-0.1 0.2 0 0.1-0.1 0.2 0 0-0.1 0.1-0.1 0.1-0.1 0.1-0.1 0.1-0.2 0.1-0.1 0-0.2 0.1-0.1 0-0.2 0zm9.5-15h4q0.1 0 0.2 0 0.2 0 0.3 0 0.1 0 0.2-0.1 0.2 0 0.3-0.1 0.1 0 0.2-0.1 0.2 0 0.3-0.1 0.1 0 0.2-0.1 0.2-0.1 0.3-0.2 0.1-0.1 0.2-0.2 0.1-0.1 0.2-0.2 0.1-0.1 0.2-0.2 0.1-0.2 0.2-0.3 0.1-0.1 0.1-0.3 0.1-0.1 0.2-0.3 0-0.1 0-0.3 0.1-0.2 0.1-0.3 0-0.1 0-0.3 0-0.1 0-0.2 0-0.1 0-0.2 0-0.1 0-0.2 0-0.2 0-0.3-0.1-0.1-0.1-0.2-0.1-0.2-0.1-0.3-0.1-0.1-0.1-0.2-0.1-0.1-0.2-0.3-0.1-0.1-0.2-0.2-0.1-0.1-0.2-0.2-0.1 0-0.2-0.1-0.1-0.1-0.3-0.2-0.2 0-0.3-0.1-0.2 0-0.4 0-0.1 0-0.3 0h-4q-0.2 0-0.3 0-0.2 0.1-0.4 0.2-0.1 0.2-0.2 0.3-0.1 0.2-0.1 0.4l-0.5 4q0 0.1 0 0.1 0 0.1 0 0.2 0 0.1 0.1 0.2 0 0 0.1 0.1 0 0.1 0.1 0.1 0.1 0.1 0.1 0.1 0.1 0 0.2 0.1 0.1 0 0.2 0zm29.2-12q0-0.1 0.1-0.2 0.1-0.1 0.1-0.2 0.1 0 0.2-0.1 0.1-0.1 0.2-0.1 0-0.1 0.1-0.1 0.1-0.1 0.2-0.1 0.1 0 0.3 0 0.1-0.1 0.2-0.1h5.3q0.1 0 0.2 0.1 0.1 0 0.2 0 0.1 0 0.1 0.1 0.1 0 0.2 0.1 0.1 0 0.1 0.1 0.1 0.1 0.2 0.1 0 0.1 0.1 0.2 0 0.1 0 0.2l7.8 25.8q0 0.1 0 0.2 0 0.1 0 0.2 0 0.1-0.1 0.2 0 0-0.1 0.1-0.1 0.1-0.2 0.2-0.1 0.1-0.2 0.1-0.1 0.1-0.2 0.1-0.1 0-0.2 0h-6.5q-0.1 0-0.2 0-0.1 0-0.2-0.1-0.1 0-0.2 0-0.1-0.1-0.2-0.2-0.1 0-0.1-0.1-0.1 0-0.2-0.1 0-0.1-0.1-0.2 0-0.1-0.1-0.1l-0.7-2.3q0-0.1-0.1-0.2 0-0.1-0.1-0.1-0.1-0.1-0.1-0.2-0.1-0.1-0.2-0.1 0-0.1-0.1-0.1-0.1-0.1-0.2-0.1-0.1 0-0.2 0-0.1 0-0.2-0.1h-8q-0.1 0.1-0.2 0.1-0.1 0-0.2 0-0.1 0-0.2 0.1-0.1 0-0.2 0.1-0.1 0-0.2 0.1 0 0.1-0.1 0.1-0.1 0.1-0.2 0.2 0 0.1-0.1 0.2l-1.3 2.3q-0.1 0-0.2 0.1 0 0.1-0.1 0.2-0.1 0.1-0.1 0.1-0.1 0.1-0.2 0.1-0.1 0.1-0.2 0.1-0.1 0.1-0.2 0.1-0.1 0.1-0.2 0.1-0.1 0-0.2 0h-6.5q-0.1 0-0.1 0-0.1 0-0.1 0-0.1 0-0.1 0-0.1-0.1-0.1-0.1-0.1 0-0.1 0-0.1 0-0.1-0.1 0 0-0.1 0 0-0.1 0-0.1-0.1-0.1-0.1-0.1 0 0 0-0.1 0 0 0-0.1 0 0 0-0.1 0-0.1 0-0.1 0-0.1 0-0.2 0 0 0.1-0.1 0-0.1 0-0.1c0 0 14.4-25.7 14.4-25.7zm0.1 16.5h3.4q0 0 0.1 0 0.1 0 0.2-0.1 0 0 0.1 0 0.1-0.1 0.1-0.1 0.1-0.1 0.1-0.2 0-0.1 0-0.1 0.1-0.1 0-0.2 0-0.1 0-0.1-0.3-1-0.6-2.3l-0.7-2.3q-0.1-0.3-0.3-0.3-0.2 0-0.4 0.3l-2.5 4.6q0 0.1-0.1 0.1 0 0.1 0 0.2 0 0.1 0 0.1 0 0.1 0 0.2 0.1 0.2 0.6 0.2zm36-10.4h-5.3q-0.1 0-0.2 0-0.1 0.1-0.2 0.1-0.1 0-0.2 0.1-0.1 0-0.1 0.1-0.1 0.1-0.1 0.1-0.1 0.1-0.2 0.2 0 0.1 0 0.2 0 0-0.1 0.1l-2.4 19q0 0.1-0.1 0.2 0 0.1 0 0.2-0.1 0.1-0.1 0.2-0.1 0-0.2 0.1 0 0.1-0.1 0.1-0.1 0.1-0.2 0.1-0.1 0-0.2 0-0.1 0.1-0.2 0h-5.7q0 0.1-0.1 0-0.1 0-0.2 0-0.1 0-0.1-0.1-0.1 0-0.2-0.1 0-0.1-0.1-0.2 0 0 0-0.1-0.1-0.1-0.1-0.2 0-0.1 0.1-0.2l2.4-19q0 0 0-0.1 0-0.1 0-0.2 0-0.1-0.1-0.2 0 0 0-0.1-0.1-0.1-0.2-0.1-0.1-0.1-0.1-0.1-0.1 0-0.2-0.1-0.1 0-0.2 0h-5.4q-0.1 0-0.1 0-0.1 0-0.2 0-0.1-0.1-0.2-0.1 0-0.1-0.1-0.1 0-0.1-0.1-0.2 0-0.1 0-0.1-0.1-0.1-0.1-0.2 0-0.1 0-0.2l0.7-5.2q0-0.1 0.1-0.3 0.1-0.2 0.2-0.3 0.2-0.1 0.4-0.2 0.1 0 0.3-0.1h20.1q0 0 0.1 0 0.1 0.1 0.2 0.1 0.1 0 0.2 0.1 0 0 0.1 0.1 0 0.1 0.1 0.2 0 0 0 0.1 0.1 0.1 0.1 0.2 0 0.1 0 0.1l-0.7 5.3q0 0.1 0 0.1 0 0.1-0.1 0.2 0 0.1-0.1 0.2 0 0-0.1 0.1-0.1 0.1-0.2 0.1 0 0.1-0.1 0.1-0.1 0-0.2 0.1-0.1 0-0.2 0zm8 20.8h-5.7q-0.1 0-0.2 0-0.1-0.1-0.2-0.1 0 0-0.1-0.1-0.1 0-0.1-0.1-0.1-0.1-0.1-0.1-0.1-0.1-0.1-0.2 0-0.1 0-0.2 0-0.1 0-0.1l3.4-26q0-0.1 0-0.2 0 0 0.1-0.1 0-0.1 0.1-0.2 0 0 0.1-0.1 0.1-0.1 0.2-0.1 0-0.1 0.1-0.1 0.1 0 0.2-0.1 0.1 0 0.2 0h5.8q0 0 0.1 0 0.1 0 0.2 0.1 0.1 0 0.1 0.1 0.1 0 0.2 0.1 0 0.1 0.1 0.1 0 0.1 0 0.2 0 0.1 0 0.2 0.1 0 0 0.1l-3.3 26q-0.1 0.1-0.1 0.2 0 0.1-0.1 0.2 0 0-0.1 0.1 0 0.1-0.1 0.1-0.1 0.1-0.1 0.2-0.1 0-0.2 0-0.1 0.1-0.2 0.1-0.1 0-0.2 0zm34.7-6.2l-0.7 5.4q0 0.1 0 0.2-0.1 0.1-0.1 0.1-0.1 0.1-0.1 0.2-0.1 0.1-0.2 0.1 0 0.1-0.1 0.1-0.1 0.1-0.2 0.1-0.1 0.1-0.2 0.1 0 0-0.1 0h-13.1q-0.9 0-1.7 0-0.8-0.1-1.7-0.2-0.8-0.2-1.6-0.4-0.8-0.2-1.5-0.5-0.7-0.3-1.2-0.6-0.6-0.3-1.2-0.7-0.5-0.4-1-0.8-0.5-0.4-0.9-0.9-0.4-0.5-0.7-1-0.4-0.6-0.7-1.1-0.2-0.6-0.4-1.2-0.2-0.6-0.4-1.2-0.1-0.7-0.2-1.4-0.1-0.7-0.1-1.3 0-0.7 0-1.4 0.1-0.7 0.2-1.4 0.1-0.7 0.2-1.4 0.2-0.7 0.4-1.4 0.2-0.7 0.5-1.4 0.3-0.7 0.7-1.3 0.3-0.6 0.7-1.2 0.4-0.6 0.9-1.2 0.4-0.6 0.9-1.1 0.5-0.5 1.1-1 0.5-0.5 1.1-0.9 0.6-0.4 1.2-0.8 0.6-0.4 1.2-0.7 0.7-0.3 1.4-0.6 0.6-0.3 1.3-0.5 0.7-0.2 1.4-0.4 0.7-0.1 1.4-0.2 0.8-0.1 1.5-0.1 0.7 0 1.4 0.1 0.7 0 1.3 0.2 0.7 0.1 1.4 0.3 0.6 0.2 1.2 0.5 1.2 0.6 2.3 1.3 1 0.8 1.9 1.8 0.8 0.9 1.4 2.1 0.6 1.1 1 2.4 0.2 0.6 0.3 1.3 0.1 0.7 0.2 1.4 0 0.7 0 1.4 0 0.7-0.1 1.4-0.1 0.4-0.2 0.9-0.1 0.4-0.2 0.9-0.2 0.4-0.3 0.8-0.2 0.4-0.4 0.8-0.2 0.4-0.4 0.8-0.3 0.4-0.5 0.7-0.3 0.4-0.6 0.7-0.2 0.3-0.5 0.6-0.6 0.7 0.2 0.7h1.8q0.1 0 0.1 0 0.1 0.1 0.2 0.1 0.1 0 0.2 0.1 0 0 0.1 0.1 0 0 0.1 0.1 0 0.1 0 0.2 0.1 0.1 0.1 0.2 0 0 0 0.1zm-14.7-1.1q0.3 0 0.6 0 0.4-0.1 0.7-0.1 0.3-0.1 0.7-0.2 0.3-0.1 0.6-0.3 0.3-0.1 0.6-0.3 0.3-0.1 0.6-0.3 0.3-0.2 0.6-0.4 0.2-0.2 0.5-0.4 0.2-0.2 0.5-0.5 0.2-0.2 0.4-0.5 0.2-0.3 0.4-0.6 0.2-0.2 0.4-0.6 0.1-0.2 0.3-0.6 0.1-0.3 0.2-0.6 0.1-0.3 0.2-0.7 0.1-0.3 0.1-0.6 0.1-0.4 0.1-0.7 0-0.3 0-0.6-0.1-0.4-0.1-0.7-0.1-0.3-0.1-0.6-0.1-0.3-0.2-0.6-0.2-0.3-0.3-0.6-0.1-0.2-0.3-0.5-0.2-0.3-0.4-0.5-0.2-0.2-0.4-0.4-0.2-0.2-0.5-0.4-0.2-0.2-0.5-0.4-0.2-0.1-0.5-0.3-0.3-0.1-0.6-0.2-0.3-0.1-0.6-0.2-0.3 0-0.6-0.1-0.4 0-0.7 0-0.3 0-0.7 0-0.3 0.1-0.6 0.1-0.4 0.1-0.7 0.2-0.3 0.1-0.6 0.2-0.6 0.3-1.2 0.7-0.6 0.3-1.1 0.8-0.5 0.5-1 1-0.4 0.6-0.7 1.2-0.2 0.3-0.3 0.6-0.1 0.3-0.3 0.6-0.1 0.4-0.1 0.7-0.1 0.3-0.2 0.7 0 0.3 0 0.6 0 0.3 0 0.7 0 0.3 0.1 0.6 0 0.3 0.1 0.6 0.1 0.3 0.2 0.6 0.1 0.3 0.3 0.6 0.1 0.2 0.3 0.5 0.2 0.2 0.4 0.5 0.2 0.2 0.4 0.4 0.2 0.2 0.4 0.4 0.3 0.2 0.5 0.3 0.3 0.2 0.6 0.3 0.3 0.2 0.6 0.3 0.3 0.1 0.6 0.2 0.3 0 0.6 0.1 0.3 0 0.7 0zm21-19.5q0-0.1 0-0.2 0-0.1 0.1-0.1 0-0.1 0.1-0.2 0-0.1 0.1-0.1 0.1-0.1 0.2-0.1 0-0.1 0.1-0.1 0.1-0.1 0.2-0.1 0.1 0 0.2 0h5.7q0 0 0.1 0 0.1 0 0.2 0.1 0.1 0 0.1 0.1 0.1 0 0.2 0.1 0 0 0.1 0.1 0 0.1 0 0.2 0 0.1 0 0.1 0.1 0.1 0 0.2l-2 15.4q0 0.3 0 0.6 0 0.3 0 0.6 0 0.3 0.1 0.6 0 0.3 0.1 0.6 0.1 0.3 0.2 0.5 0.1 0.2 0.2 0.4 0.1 0.2 0.3 0.3 0.1 0.2 0.3 0.4 0.2 0.1 0.3 0.2 0.2 0.1 0.4 0.2 0.1 0.1 0.3 0.2 0.2 0.1 0.4 0.1 0.2 0.1 0.3 0.1 0.2 0.1 0.4 0.1 0.2 0 0.4 0 0.1 0.1 0.3 0.1 0.2 0 0.4-0.1 0.2 0 0.4 0 0.2 0 0.3-0.1 0.2 0 0.4-0.1 0.2 0 0.4-0.1 0.2-0.1 0.4-0.2 0.2-0.1 0.4-0.2 0.2-0.1 0.4-0.2 0.2-0.2 0.4-0.4 0.2-0.1 0.3-0.3 0.2-0.2 0.4-0.4 0.1-0.2 0.3-0.5 0.1-0.2 0.2-0.5 0.2-0.3 0.3-0.6 0.1-0.4 0.1-0.7 0.1-0.3 0.1-0.6l2-15.4q0.1-0.2 0.2-0.3 0-0.2 0.2-0.3 0.1-0.1 0.3-0.2 0.2-0.1 0.3-0.1h5.8q0 0 0.1 0 0.1 0 0.2 0.1 0.1 0 0.1 0.1 0.1 0 0.2 0.1 0 0 0.1 0.1 0 0.1 0 0.2 0 0.1 0 0.1 0.1 0.1 0 0.2l-2 15.4q0 0.6-0.2 1.3-0.1 0.6-0.3 1.2-0.2 0.6-0.4 1.2-0.3 0.6-0.5 1.2-0.3 0.5-0.6 1-0.4 0.5-0.7 1-0.4 0.5-0.8 0.9-0.4 0.5-0.9 0.8-0.4 0.4-0.9 0.8-0.5 0.3-1 0.6-0.6 0.3-1.1 0.6-0.6 0.3-1.1 0.5-0.6 0.2-1.3 0.3-0.6 0.2-1.2 0.3-0.7 0.1-1.3 0.2-0.7 0-1.3 0-0.6 0-1.2 0-0.7-0.1-1.3-0.2-0.6-0.1-1.2-0.3-0.6-0.1-1.2-0.3-0.5-0.2-0.9-0.5-0.5-0.2-1-0.5-0.4-0.3-0.8-0.7-0.4-0.4-0.8-0.8-0.3-0.4-0.6-0.8-0.3-0.4-0.6-0.9-0.2-0.5-0.4-1-0.2-0.5-0.4-1-0.1-0.6-0.2-1.2-0.1-0.6-0.1-1.2-0.1-0.7 0-1.3 0-0.6 0.1-1.2l2-15.4zm36.5 7l-0.2 1.6q0 0.1 0 0.2 0 0.1 0 0.1 0 0.1 0.1 0.2 0 0.1 0.1 0.1 0 0.1 0.1 0.2 0.1 0 0.1 0.1 0.1 0 0.2 0 0.1 0 0.2 0h10.3q0.1 0 0.1 0 0.1 0 0.2 0.1 0.1 0 0.2 0.1 0 0 0.1 0.1 0 0 0.1 0.1 0 0.1 0 0.2 0.1 0.1 0.1 0.2 0 0 0 0.1l-0.7 5.3q0 0.1-0.1 0.2 0 0 0 0.1-0.1 0.1-0.1 0.2-0.1 0-0.2 0.1 0 0.1-0.1 0.1-0.1 0.1-0.2 0.1-0.1 0-0.2 0.1-0.1 0-0.1 0h-10.4q-0.1 0-0.2 0 0 0-0.1 0-0.1 0.1-0.2 0.1-0.1 0.1-0.1 0.1-0.1 0.1-0.2 0.2 0 0-0.1 0.1 0 0.1-0.1 0.2 0 0.1 0 0.2l-0.2 1.4q0 0.1 0 0.2 0 0.1 0 0.2 0.1 0.1 0.1 0.1 0 0.1 0.1 0.2 0 0 0.1 0.1 0.1 0 0.2 0.1 0 0 0.1 0 0.1 0 0.2 0h11.8q0.1 0 0.2 0.1 0.1 0 0.1 0 0.1 0 0.2 0.1 0.1 0 0.1 0.1 0.1 0.1 0.1 0.2 0.1 0 0.1 0.1 0 0.1 0 0.2 0 0.1 0 0.1l-0.7 5.3q0 0.1 0 0.2 0 0.1-0.1 0.1 0 0.1-0.1 0.2-0.1 0.1-0.1 0.1-0.1 0.1-0.2 0.2-0.1 0-0.1 0-0.1 0.1-0.2 0.1-0.1 0-0.2 0h-19.3q-0.1 0-0.2 0-0.1 0-0.2-0.1 0 0-0.1 0-0.1-0.1-0.1-0.2-0.1 0-0.1-0.1-0.1-0.1-0.1-0.2 0 0 0-0.1 0-0.1 0-0.2l3.4-26q0-0.1 0-0.2 0-0.1 0.1-0.2 0 0 0.1-0.1 0-0.1 0.1-0.2 0.1 0 0.1-0.1 0.1 0 0.2 0 0.1-0.1 0.2-0.1 0.1 0 0.2 0h19.3q0.1 0 0.2 0 0.1 0 0.1 0 0.1 0.1 0.2 0.1 0.1 0.1 0.1 0.1 0.1 0.1 0.1 0.2 0.1 0.1 0.1 0.1 0 0.1 0 0.2 0 0.1 0 0.2l-0.7 5.1q0 0.2-0.1 0.4-0.1 0.2-0.2 0.3-0.2 0.1-0.3 0.2-0.2 0-0.4 0h-11.8q-0.2 0.1-0.3 0.1-0.2 0.1-0.3 0.2-0.2 0.2-0.3 0.3-0.1 0.2-0.1 0.4z"/><path fill-rule="evenodd" fill="#ed143d" d="m39.4 4.6c5.5 3.9 9.3 9.9 10.3 16.6 1.1 6.7-0.7 13.6-4.8 18.9-4.2 5.4-10.3 8.9-17.1 9.6-6.8 0.8-13.5-1.3-18.7-5.7-2.9-2.4-5.3-5.4-6.9-8.9-1.5-3.4-2.3-7.2-2.2-10.9 0.1-3.8 1.1-7.5 2.8-10.9 1.8-3.3 4.2-6.2 7.3-8.5 2.1-1.5 4.4-2.7 6.9-3.5 2.5-0.9 5.1-1.3 7.7-1.3 2.6-0.1 5.2 0.3 7.7 1.1 2.5 0.8 4.8 1.9 7 3.5zm-26 4.8q0.6 0.1 1.2 0.3 0.6 0.1 1.2 0.3 0.6 0.1 1.2 0.3 0.6 0.2 1.1 0.4c8.4 3.1 13.6 8.9 11.4 13.2q-0.2 0.3-0.4 0.6-0.2 0.3-0.4 0.6-0.3 0.2-0.6 0.5-0.3 0.2-0.6 0.4c-1.9-4.7-4.5-9.4-5.2-13.1-0.1 4.6 0.8 9.6 1.3 14.6q-1.7 0.2-3.4 0.2-1.6 0-3.3-0.1-1.7-0.2-3.3-0.6-1.6-0.4-3.2-1-0.5-0.2-1.1-0.5-0.5-0.2-1.1-0.4-0.5-0.3-1.1-0.6-0.5-0.2-1-0.5 0.9 1 1.9 1.8 1 0.9 2.2 1.6 1.1 0.7 2.3 1.3 1.2 0.6 2.5 1 1.1 0.4 2.2 0.7 1.1 0.3 2.2 0.5 1.1 0.2 2.2 0.3 1.2 0.1 2.3 0.1c0.2 5.1-0.3 9.8-3.2 13.5 9.4-2.5 10.2-8 8.5-14.2 3-0.8 5.3-2.4 6.4-4.6 2.6-5.2-2.3-12-11-15.2q-1.4-0.5-2.7-0.8-1.4-0.3-2.8-0.5-1.4-0.2-2.8-0.2-1.4-0.1-2.8 0.1z"/></svg>